Coordinates
version=1
nRows=14
nColumns=40
inDegrees=yes

Units are S.I. units (second, meters, Newtons, ...)
Angles are in degrees.

endheader
time	pelvis_tilt	pelvis_list	pelvis_rotation	pelvis_tx	pelvis_ty	pelvis_tz	hip_flexion_r	hip_adduction_r	hip_rotation_r	knee_angle_r	knee_angle_r_beta	ankle_angle_r	subtalar_angle_r	mtp_angle_r	hip_flexion_l	hip_adduction_l	hip_rotation_l	knee_angle_l	knee_angle_l_beta	ankle_angle_l	subtalar_angle_l	mtp_angle_l	lumbar_extension	lumbar_bending	lumbar_rotation	arm_flex_r	arm_add_r	arm_rot_r	elbow_flex_r	pro_sup_r	wrist_flex_r	wrist_dev_r	arm_flex_l	arm_add_l	arm_rot_l	elbow_flex_l	pro_sup_l	wrist_flex_l	wrist_dev_l
      5.25000000	      7.05479119	     27.15104588	     80.17636595	      0.64087542	      1.03021113	     -1.11079656	    -26.75636893	      5.05654902	      6.27802349	      3.49401905	      0.06098214	      6.38842411	      0.00000000	      0.00000000	    -13.93724595	     -6.86292050	    -12.89422362	     52.96783045	      0.92446304	      4.24037326	      0.00000000	      0.00000000	    -40.53847133	      2.86437490	      6.73266062	     10.26261882	    -15.88768098	     10.80923243	    137.81641999	     86.64169853	      0.00000000	      0.00000000	      2.52982975	     -8.64417153	      6.02850102	    140.00402673	     84.96262301	      0.00000000	      0.00000000
      5.26000000	      6.79963596	     27.10245273	     80.04693529	      0.64169622	      1.03114173	     -1.10906379	    -27.73646501	      4.62230406	      6.44567321	      2.76447096	      0.04824912	      6.40103471	      0.00000000	      0.00000000	    -12.83042527	     -6.78632867	    -13.30888112	     51.44833827	      0.89794290	      5.44724940	      0.00000000	      0.00000000	    -40.65948735	      2.43890139	      7.08815612	     10.47410430	    -16.20729524	     10.73076188	    137.85232844	     86.79255130	      0.00000000	      0.00000000	      2.59833336	     -8.72524763	      6.12893916	    139.97635079	     85.22231969	      0.00000000	      0.00000000
      5.27000000	      6.64621042	     26.80106728	     79.95363810	      0.64243512	      1.03155985	     -1.10698847	    -28.39074203	      4.36277006	      6.49485379	      2.11731707	      0.03695415	      6.58344327	      0.00000000	      0.00000000	    -11.44051195	     -6.97600745	    -13.82362000	     49.90372055	      0.87098423	      6.83268965	      0.00000000	      0.00000000	    -40.60075109	      2.17030528	      7.46094089	     10.67080629	    -16.55719600	     10.78003280	    137.89697386	     86.70365093	      0.00000000	      0.00000000	      2.69726637	     -8.72476557	      6.22054235	    139.90079696	     85.18215224	      0.00000000	      0.00000000
      5.28000000	      6.71740435	     26.33160400	     79.74427899	      0.64342799	      1.03157968	     -1.10461873	    -28.75170666	      4.35045316	      6.49697423	      1.73042644	      0.03020164	      6.73694855	      0.00000000	      0.00000000	     -9.97506345	     -7.47396789	    -14.46596659	     48.19164412	      0.84110286	      7.78708725	      0.00000000	      0.00000000	    -40.44889351	      2.07975979	      7.96794198	     10.81748978	    -16.88982935	     10.92463950	    137.92536783	     86.55049848	      0.00000000	      0.00000000	      2.75909891	     -8.69301251	      6.34042293	    139.79509884	     85.05452834	      0.00000000	      0.00000000
      5.29000000	      6.89350045	     25.98771769	     79.05131059	      0.64490219	      1.03148853	     -1.10205258	    -29.06340765	      4.20487513	      7.18890372	      1.71013204	      0.02984743	      6.91832698	      0.00000000	      0.00000000	     -9.00519317	     -7.90629476	    -15.52307240	     46.03170657	      0.80340484	      8.38645060	      0.00000000	      0.00000000	    -40.46436309	      1.77180774	      8.87126624	     11.05215997	    -17.26368411	     10.77804232	    138.00248253	     86.71058552	      0.00000000	      0.00000000	      2.90424830	     -8.55060025	      6.44541128	    139.68847632	     85.22187979	      0.00000000	      0.00000000
      5.30000000	      6.92969283	     25.45232996	     78.92591168	      0.64528080	      1.03076763	     -1.09978180	    -29.30188592	      4.16324432	      7.15770104	      1.41390121	      0.02467723	      7.27125595	      0.00000000	      0.00000000	     -7.68341201	     -8.28068770	    -16.08429264	     43.80576246	      0.76455479	      9.17390891	      0.00000000	      0.00000000	    -40.22836021	      1.74272647	      9.31468345	     11.20596695	    -17.62463130	     10.75462481	    138.03293036	     86.65314782	      0.00000000	      0.00000000	      2.99557544	     -8.37318250	      6.52934852	    139.54847886	     85.22201112	      0.00000000	      0.00000000
      5.31000000	      7.09604906	     24.80603406	     78.98116723	      0.64544509	      1.02959936	     -1.09723877	    -29.40300812	      4.39143888	      6.87091813	      1.20083637	      0.02095855	      7.58740887	      0.00000000	      0.00000000	     -6.17301978	     -8.86090313	    -16.45032630	     41.57982424	      0.72570484	      9.47481782	      0.00000000	      0.00000000	    -39.93303145	      1.96531158	      9.61169111	     11.42118984	    -17.96318656	     10.87278375	    138.04528548	     86.40393689	      0.00000000	      0.00000000	      3.05193050	     -8.20657119	      6.63882703	    139.45182034	     85.01729948	      0.00000000	      0.00000000
      5.32000000	      7.01196500	     24.32463765	     78.74684855	      0.64574130	      1.02854296	     -1.09507288	    -29.54477206	      4.14904643	      7.04877395	      1.19581962	      0.02087099	      8.02337771	      0.00000000	      0.00000000	     -5.23533064	     -8.94780437	    -17.15398827	     38.75271868	      0.67636254	     10.19498795	      0.00000000	      0.00000000	    -39.71324531	      1.75054947	     10.09395655	     11.42077751	    -18.35204618	     10.89042525	    138.09874811	     86.39738681	      0.00000000	      0.00000000	      3.09503214	     -7.89627276	      6.77404883	    139.25478105	     85.01626618	      0.00000000	      0.00000000
      5.33000000	      7.12894014	     23.73193364	     78.71027711	      0.64569806	      1.02707499	     -1.09313176	    -29.62356312	      4.24936381	      6.75863485	      1.16781391	      0.02038220	      8.66218198	      0.00000000	      0.00000000	     -4.22682097	     -9.28157696	    -17.61418099	     35.78059330	      0.62448916	     10.32776601	      0.00000000	      0.00000000	    -39.38549313	      1.88849801	     10.47187304	     11.34773722	    -18.64635432	     10.82997753	    138.15812581	     86.50218972	      0.00000000	      0.00000000	      3.11584275	     -7.57413764	      6.86361371	    139.07008139	     85.19893663	      0.00000000	      0.00000000
      5.34000000	      7.47079987	     23.00417196	     79.01823151	      0.64541185	      1.02497201	     -1.09060922	    -29.64606357	      4.80642839	      6.44191249	      1.02138817	      0.01782659	      9.02358534	      0.00000000	      0.00000000	     -2.79644011	    -10.02221499	    -17.88484485	     33.15682266	      0.57869572	     10.31310256	      0.00000000	      0.00000000	    -39.04480460	      2.43252180	     10.55173630	     11.55756695	    -18.89795803	     10.87309293	    138.21081264	     86.17450735	      0.00000000	      0.00000000	      3.19241008	     -7.30351607	      6.91356838	    139.04753083	     84.92737763	      0.00000000	      0.00000000
      5.35000000	      7.41540492	     22.51063189	     78.69396423	      0.64535088	      1.02338932	     -1.08865675	    -29.71014480	      4.52719566	      6.61214889	      1.16155575	      0.02027297	      9.66227366	      0.00000000	      0.00000000	     -2.34423927	     -9.86032829	    -18.49790384	     29.30093837	      0.51139785	     10.12220042	      0.00000000	      0.00000000	    -38.77459659	      2.24264635	     11.03795575	     11.54263886	    -19.21476439	     10.83126495	    138.13926476	     86.55102382	      0.00000000	      0.00000000	      3.12648086	     -6.77694404	      6.87868632	    138.73852237	     85.29949194	      0.00000000	      0.00000000
      5.36000000	      7.53579048	     21.86680235	     78.96831856	      0.64467455	      1.02111042	     -1.08664823	    -29.73747532	      4.77061602	      6.22166711	      1.14140561	      0.01992129	     10.26592116	      0.00000000	      0.00000000	     -1.39126780	    -10.02965103	    -18.47034913	     25.83617335	      0.45092629	     10.11369514	      0.00000000	      0.00000000	    -38.40193631	      2.56560618	     11.05945462	     11.52421140	    -19.33417019	     10.82400001	    138.13479098	     86.53265513	      0.00000000	      0.00000000	      3.10673434	     -6.35945096	      6.81944740	    138.58927624	     85.33406645	      0.00000000	      0.00000000
      5.37000000	      7.70534206	     21.23121647	     79.30545836	      0.64392503	      1.01868603	     -1.08438523	    -29.75603665	      5.09353977	      6.01913568	      1.14930910	      0.02005923	     10.69828416	      0.00000000	      0.00000000	     -0.45051729	    -10.15599087	    -18.03530718	     22.27911274	      0.38884387	      9.59705974	      0.00000000	      0.00000000	    -38.07075143	      2.96466792	     11.00522224	     11.58808362	    -19.44576282	     10.89687737	    138.12140529	     86.32056022	      0.00000000	      0.00000000	      3.09781839	     -5.97258489	      6.79599545	    138.46301685	     85.10325811	      0.00000000	      0.00000000
      5.38000000	      7.77093558	     20.64826745	     79.56086458	      0.64302224	      1.01614090	     -1.08251735	    -29.77459825	      5.23133667	      5.67285657	      1.25732094	      0.02194439	     11.33810641	      0.00000000	      0.00000000	      0.16342354	     -9.97753025	    -17.31136514	     18.35331865	      0.32032584	      8.86575371	      0.00000000	      0.00000000	    -37.73668051	      3.22392151	     10.95559044	     11.57672971	    -19.51107200	     10.85639171	    138.11190282	     86.49764306	      0.00000000	      0.00000000	      3.03336553	     -5.54493681	      6.69323343	    138.31913953	     85.28043231	      0.00000000	      0.00000000
